<svg id="Warstwa_1" data-name="Warstwa 1" xmlns="http://www.w3.org/2000/svg" viewBox="0 0 365.14 96.51"><defs><style>.cls-1{fill:#465121;}.cls-2{fill:#8b5237;}.cls-3{fill:#455120;}.cls-4{fill:#839768;}.cls-5{fill:#455121;}.cls-6{fill:#303c54;}.cls-7{fill:#839668;}.cls-8{fill:#829669;}.cls-9{fill:#444e22;}.cls-10{fill:#839568;}.cls-11{fill:#4d503d;}.cls-12{fill:#b0b6a3;}.cls-13{fill:#abaf9d;}.cls-14{fill:#bdc0ae;}.cls-15{fill:#bcbeac;}.cls-16{fill:#b6b9a7;}.cls-17{fill:#cedbba;}.cls-18{fill:#cfddbe;}.cls-19{fill:#696c57;}</style></defs><title>coreui-base-white</title><path class="cls-1" d="M112.08,104.79c0-1.51,0-3,0-4.53q0-14.57,0-29.14c0-.29,0-.58,0-.86a1.74,1.74,0,0,1,1.37-.38c2,0,4,0,6,0,1.53,0,1.63.18,1.72,1.69,0,.54-.49,1.34.48,1.63h0c.36-.74,1.2-.92,1.7-1.49a15.12,15.12,0,0,1,5.49-2.34c5.31-.93,9.55.39,12.75,5a3.85,3.85,0,0,1,.28.66,1,1,0,0,0,.85-.46,13.71,13.71,0,0,1,14.94-5,10.17,10.17,0,0,1,7.46,7.27,13.56,13.56,0,0,1,.58,3.49c.16,6,0,12,.08,18,0,1.83,0,3.67,0,5.51,0,1.18-.05,1.23-1.26,1.23h-6.37c-1.17,0-1.22-.06-1.23-1.27,0-5.44,0-10.87,0-16.3a25.49,25.49,0,0,0-.82-6.78,5.43,5.43,0,0,0-4.52-3.57,7.35,7.35,0,0,0-7.46,5.5,18.93,18.93,0,0,0-.48,5c0,5.18,0,10.37,0,15.56,0,.29,0,.57,0,.86-.05.73-.3,1-1.06,1-2.41,0-4.82,0-7.23,0-.57,0-.83-.25-.8-.81,0-.25,0-.49,0-.74,0-5.8,0-11.6,0-17.4a16,16,0,0,0-.94-5.39,5.07,5.07,0,0,0-4.84-3.53,6,6,0,0,0-4.66,1.59A6.26,6.26,0,0,0,122.35,81h0a10.91,10.91,0,0,0-1,2.47h0a32.49,32.49,0,0,0-.34,5.83c-.09,4.65,0,9.31,0,14,0,1.66-.24,1.89-1.92,1.9h-5.51A1.89,1.89,0,0,1,112.08,104.79Z" transform="translate(-6 -40.14)"/><path class="cls-2" d="M24.27,95.72a10,10,0,0,1-.69,2.2,17.71,17.71,0,0,0-.18,8.25c.27,1.6.78,3.15,1.16,4.73a7.15,7.15,0,0,1,.15,1.21,57,57,0,0,1-.16,7.84,3.54,3.54,0,0,1-1.1,2.49,2.73,2.73,0,0,1-1.72.81,57.62,57.62,0,0,1-5.87.25c-1.22,0-2.44-.17-3.66-.22s-2.61-1.77-2.92-3A57,57,0,0,1,8,108c0-1.35.36-2.66.36-4a51.43,51.43,0,0,1,.88-6.87c.18-1.34.44-2.66.68-4,.34-1.84.79-3.66,1.18-5.49.74-3.46,1.62-6.89,2-10.42.12-1.08.26-2.15.33-3.24a26.28,26.28,0,0,0-.64-5.67c-.25-1.73-.52-3.47-.83-5.19A36.66,36.66,0,0,0,10.63,58Q9,53.26,7.25,48.55c-.36-.93-.73-1.87-1.11-2.81a1.75,1.75,0,0,1,1-2.29c.7-.34,1.46-.49,2.17-.81.9-.41,2,.09,2.62,1.23,1.23,2.08,2.39,4.2,3.56,6.32.9,1.62,1.85,3.23,2.63,4.92C19,57,19.89,59,20.67,60.93c.57,1.43,1.13,2.86,1.66,4.3a26.86,26.86,0,0,1,1.84,9.06c.06,4.49.36,9,.55,13.46,0,.3-.14.72.31.82s.56-.15.8-.41a6.46,6.46,0,0,0,.9-1c.29-.63.69-1.1,1.48-1s.77.75,1,1.26a.67.67,0,0,1-.35.92c-.82.34-1.13,1.12-1.6,1.76-.16.46-.66.81-.44,1.39.24.36.8.11,1,.54a1.91,1.91,0,0,1,.06,1.77c-.3.61-.89.48-1.41.36-1.54-.34-1.54-.35-2,1.22A1,1,0,0,1,24.27,95.72Z" transform="translate(-6 -40.14)"/><path class="cls-3" d="M182.94,110c0,2.29,0,4.57,0,6.86,0,1-.12,1.17-1.1,1.18-2.29,0-4.58,0-6.87,0-.7,0-1-.34-.95-1,.13-1.51,0-3,0-4.53q0-20.28,0-40.57c0-.25,0-.49,0-.74-.06-1,0-1.16,1.09-1.18.74,0,1.47,0,2.21,0h4c1.53,0,1.55,0,1.53,1.6,0,.32,0,.65,0,1s-.07.5.21.64.44,0,.62-.22a14.09,14.09,0,0,1,3.36-2.32,14.77,14.77,0,0,1,11.65-.9,16.32,16.32,0,0,1,10.44,10.4,20,20,0,0,1,1.07,9.11,2.3,2.3,0,0,0,0,.37,14.91,14.91,0,0,1-2.15,7.51,18.21,18.21,0,0,1-6.68,6.82,15.45,15.45,0,0,1-9.28,2,14,14,0,0,1-8.09-3.46c-.18-.16-.34-.35-.53-.49s-.49-.11-.54.21a6.37,6.37,0,0,0-.08,1V110Z" transform="translate(-6 -40.14)"/><path class="cls-4" d="M24.27,95.72c-.15-.71.33-1.24.53-1.85.13-.41.49-.36.82-.27s.93.28,1.4.39a.52.52,0,0,0,.69-.49,1.68,1.68,0,0,0-.92-2c.56,0,1.15.2,1.63-.29a.55.55,0,0,1,.35-.07c2.73,0,5.42-.77,8.16-.47a35.88,35.88,0,0,1,6,.8c.81.24,1.67.31,2.5.52a24.52,24.52,0,0,1,7,3.08,25.06,25.06,0,0,1,7.8,7.71,38.51,38.51,0,0,1,3,5.69,42.73,42.73,0,0,1,3,10.38,71.58,71.58,0,0,1,1,14.62c0,.9-.13,1.79-.2,2.68,0,.21,0,.42-.28.48a.47.47,0,0,1-.56-.35,23.45,23.45,0,0,0-5-7.38,37.07,37.07,0,0,0-5.17-4.75c-1.72-1.27-3.46-2.53-5.28-3.61-1.48-.88-3.07-1.65-4.6-2.47a37.49,37.49,0,0,1-7.48-5.37,50.5,50.5,0,0,1-5.3-5.65,42.84,42.84,0,0,1-3.89-5.55c-1.15-2-2.24-3.92-3.24-5.94a12.71,12.71,0,0,0-.56-1.51,1.05,1.05,0,0,0-.78.88A.89.89,0,0,1,24.27,95.72Z" transform="translate(-6 -40.14)"/><path class="cls-4" d="M27.23,90.12a2.74,2.74,0,0,1,1.18-1.71c.24-.15.6-.3.57-.56a3.14,3.14,0,0,0-.4-1.21c-.19-.35-.84-.25-1.38.17-.15.13-.31.25-.47.37-.23-.88.34-1.58.61-2.31A57.1,57.1,0,0,1,33.28,73a51.34,51.34,0,0,1,6.84-8.33,35.83,35.83,0,0,1,6.75-5.12,47.8,47.8,0,0,0,8.32-6.28,36.86,36.86,0,0,0,7.18-9.1C63,43,63.47,41.74,64,40.54a3.59,3.59,0,0,1,.3-.4A12.32,12.32,0,0,1,65,43.23,64.58,64.58,0,0,1,65.61,52a42.09,42.09,0,0,1-.46,7.68c-.27,1.35-.34,2.74-.61,4.1-.23,1.19-.55,2.34-.89,3.5s-.7,2.14-1,3.22a18.44,18.44,0,0,1-1.73,3.87,24.32,24.32,0,0,1-4.42,6.05,16.78,16.78,0,0,1-4,3.18,11.3,11.3,0,0,0-1.25.91,27.62,27.62,0,0,1-7,2.93c-.88.29-1.83.4-2.74.61a40.45,40.45,0,0,1-9.25.6c-.82,0-1.64,0-2.45,0a1.92,1.92,0,0,0-2.05,1C27.62,89.82,27.5,90.05,27.23,90.12Z" transform="translate(-6 -40.14)"/><path class="cls-5" d="M273.42,70.24c0,.53,0,1.06,0,1.59q0,16,0,32c0,1.26,0,1.27-1.31,1.28-2.12,0-4.25,0-6.37,0-1.05,0-1.21-.17-1.2-1.21,0-.45.09-.89.13-1.34,0-.25,0-.5-.3-.6s-.38,0-.59.23a14.35,14.35,0,0,1-6.57,3.48,15.31,15.31,0,0,1-10-1.1,17.82,17.82,0,0,1-5.95-4.65,16.58,16.58,0,0,1-3.61-7.2,22.59,22.59,0,0,1,.58-12.44,16.86,16.86,0,0,1,6.82-8.69A15.34,15.34,0,0,1,258,69.7a16.28,16.28,0,0,1,5.61,3c.67.42.95.2,1-.55.24-2.36.25-2.27,2.66-2.23,1.55,0,3.1-.07,4.65-.07A2,2,0,0,1,273.42,70.24Z" transform="translate(-6 -40.14)"/><path class="cls-5" d="M86.23,106a16.54,16.54,0,0,1-10.4-3.28,18.3,18.3,0,0,1-5.14-5.61,18.73,18.73,0,0,1-2.17-6,17,17,0,0,1-.36-4.59,18.08,18.08,0,0,1,6.51-13.08,19,19,0,0,1,6.58-3.68,17.51,17.51,0,0,1,8-.48,19,19,0,0,1,10.2,5,17,17,0,0,1,3.88,5.54,18.69,18.69,0,0,1-3,20.08A18.79,18.79,0,0,1,92,105.29,15.85,15.85,0,0,1,86.23,106Z" transform="translate(-6 -40.14)"/><path class="cls-6" d="M86.57,97.75a9.37,9.37,0,0,1-9.42-8.5,11.65,11.65,0,0,1,1.24-7.08,8.28,8.28,0,0,1,5.9-4.36,9.52,9.52,0,0,1,2-.45c4.21.17,7.55,2.07,9.13,6.28a10.89,10.89,0,0,1,.49,5.9,10.72,10.72,0,0,1-2.34,5.1A9,9,0,0,1,90,97.17,6.9,6.9,0,0,1,86.57,97.75Z" transform="translate(-6 -40.14)"/><path class="cls-7" d="M329.77,90.29c1.12-.4,1.16-1.27,1.4-1.88,1-2.65,2-5.33,3.23-7.92a9.88,9.88,0,0,1,3.12-3.81,3.62,3.62,0,0,1,2.58-.5c1.65.17,2.13.68,2.5,2.32.45,2-.15,3.88-.37,5.81-.24,2.14-.74,4.26-.87,6.42,0,.41-.17.8-.21,1.2a11.07,11.07,0,0,0,1.11,6.77c.64,1.13.36,1.83-1.23,2.14a7.62,7.62,0,0,1-2.08,0,3,3,0,0,1-2.55-2.71,16.88,16.88,0,0,1-.06-2.93c.11-1.55.06-3.11.09-4.66a13.43,13.43,0,0,1,.19-2.68,16,16,0,0,0-.54-4.72A18.33,18.33,0,0,0,334.3,87c-.65,1.75-1.06,3.57-1.58,5.35a61.57,61.57,0,0,1-2,6.23,4.76,4.76,0,0,1-1.46,1.92,1.48,1.48,0,0,1-1.7.11,3.85,3.85,0,0,1-1.93-2.79,11,11,0,0,1-.58-2.73c0-.55-.26-.62-.7-.22A15.24,15.24,0,0,1,321,97.37a3.32,3.32,0,0,1-4-1.07c-.1-.12-.12-.3-.21-.43-.51-.78-.81-.81-1.31,0a16.83,16.83,0,0,1-2.71,3.38c-1.49,1.43-2.94,2.32-5.36,1.12A6.39,6.39,0,0,1,304,96a15.86,15.86,0,0,1-.08-6.89,16.25,16.25,0,0,1,1.68-4.93A10.57,10.57,0,0,1,311.28,79a7.39,7.39,0,0,1,2.83-.61,3.38,3.38,0,0,1,2.29.63.66.66,0,0,0,1,.05,2.78,2.78,0,0,1,2.48-.13c.89.25,1.18.86,1.15,1.88a21.21,21.21,0,0,1-.66,3.71,19.91,19.91,0,0,0-.76,6.23c.21,1.93,1.35,2.24,2.66,1.65a9.32,9.32,0,0,1,1.56-.66c.89-.21.95-.74.94-1.43,0-1.83,0-3.67-.07-5.51s.43-2.58,2.18-3.18a8.8,8.8,0,0,1,1.92-.36c1-.08,1.24.15,1.4,1.11a14.15,14.15,0,0,1,0,3.9A30.33,30.33,0,0,1,329.77,90.29Z" transform="translate(-6 -40.14)"/><path class="cls-8" d="M289.38,105.53c-.82,0-1.64,0-2.46,0a6,6,0,0,1-3.49-1.29,2.35,2.35,0,0,1,1-4.44,4.69,4.69,0,0,1,3.55.56,6.56,6.56,0,0,0,4.67,1,4.76,4.76,0,0,0,3.23-1.76,3.69,3.69,0,0,0-.27-4.4,32.59,32.59,0,0,0-5.72-5,47.06,47.06,0,0,1-7.84-6.67,32.69,32.69,0,0,1-3.79-5.21,4.27,4.27,0,0,1-.63-1.81,9.15,9.15,0,0,1,.3-4.21,8.18,8.18,0,0,1,2.44-3.08A12.27,12.27,0,0,1,284.64,67a21.91,21.91,0,0,1,8.77-.91,15.08,15.08,0,0,1,6.9,2,4.09,4.09,0,0,1,2,2,2.51,2.51,0,0,1,.27.91,16.93,16.93,0,0,1-.1,3.42,6.51,6.51,0,0,1-3.71,4.8,3.44,3.44,0,0,1-2.51.07,1.57,1.57,0,0,1-1.15-2.31,3.66,3.66,0,0,0,.36-1.15,3.14,3.14,0,0,0-2.38-3.76,8.8,8.8,0,0,0-5.71-.07,5.89,5.89,0,0,0-2.75,1.41,1.63,1.63,0,0,0-.49.92,6.28,6.28,0,0,0,1.67,5.16,64.26,64.26,0,0,0,8.4,8.09,35.06,35.06,0,0,1,6,6A7.91,7.91,0,0,1,302.17,98a5.79,5.79,0,0,1-2.87,5.27,14.11,14.11,0,0,1-4,1.64A21.25,21.25,0,0,1,289.38,105.53Z" transform="translate(-6 -40.14)"/><path class="cls-9" d="M224.4,72.22A10.37,10.37,0,0,1,227.23,70a8.1,8.1,0,0,1,6.64-.27c.42.15.36.49.37.8a6.58,6.58,0,0,1-.75,2.28c-.41,1.35-1,2.66-1.42,4-.18.52-.46.75-1,.58a1.45,1.45,0,0,1-.36-.08c-2.43-1.27-4.45.73-5.16,2.58a16.26,16.26,0,0,0-1.1,5.74c0,6,0,12,0,18,0,.41,0,.81,0,1.22a1.66,1.66,0,0,1-1.25.37H217c-.92,0-1.45-.3-1.45-1.35,0-11,0-22,0-32.94a1.51,1.51,0,0,1,.08-.48.9.9,0,0,1,1-.49c1.71.14,3.42.07,5.13,0,1,0,1.48.31,1.35,1.34a2.67,2.67,0,0,0,0,.49c0,.4-.08.93.36,1.09S224.08,72.43,224.4,72.22Z" transform="translate(-6 -40.14)"/><path class="cls-10" d="M359.24,88.26a14.86,14.86,0,0,1-2,7.56,6.81,6.81,0,0,1-3.57,2.76,10.74,10.74,0,0,1-5.39.65,4.72,4.72,0,0,1-3.68-3,11.22,11.22,0,0,1-.8-4,17,17,0,0,1,.2-5,4.61,4.61,0,0,1,1.69-3.07c.68-.46,1.08-1.2,1.75-1.69a7.8,7.8,0,0,1,8.19-1,5.29,5.29,0,0,1,3.23,3.83A9.19,9.19,0,0,1,359.24,88.26Z" transform="translate(-6 -40.14)"/><path class="cls-11" d="M371.14,70.69c.2,4-3.61,7.22-7,7.13a7.11,7.11,0,0,1,0-14.21A7,7,0,0,1,371.14,70.69Z" transform="translate(-6 -40.14)"/><path class="cls-12" d="M215.8,70.24q0,16.8,0,33.58c0,1,0,1.06,1,1.05,2.53,0,5.06.09,7.59-.06.08.46-.1.7-.58.7h-7.35a1.21,1.21,0,0,1-1.13-1.07,4.83,4.83,0,0,1,0-.85V71.25c0-.35-.12-.74.2-1A.2.2,0,0,1,215.8,70.24Z" transform="translate(-6 -40.14)"/><path class="cls-13" d="M112.08,104.79c2.65.17,5.3,0,7.94.09.53,0,.74-.24.77-.72s0-.82,0-1.23l.06-16.37a8.68,8.68,0,0,1,.51-3.07c0,1.26.05,2.52-.06,3.78-.26,3.09-.09,6.18-.13,9.28,0,2.48,0,5,0,7.45,0,1.25-.26,1.49-1.51,1.5q-3.3,0-6.6,0C112.59,105.5,112,105.57,112.08,104.79Z" transform="translate(-6 -40.14)"/><path class="cls-14" d="M121.64,73.2a.51.51,0,0,1-.54.41c-.33,0-.26-.37-.26-.6,0-.69,0-1.38,0-2.08,0-.49-.16-.77-.7-.75-2.69.06-5.38-.09-8.07.08-.12-.67.29-.73.79-.73h4.75c.78,0,1.55,0,2.32,0,1,0,1.34.47,1.43,1.43C121.44,71.73,121.11,72.52,121.64,73.2Z" transform="translate(-6 -40.14)"/><path class="cls-15" d="M273.42,70.24l-7.94-.06c-.54,0-.72.21-.7.72s0,1.06,0,1.59c0,.37.06.78-.41.9s-.72-.22-.82-.66c.47,0,.77-.17.73-.72a8.44,8.44,0,0,1,0-1.33,1.06,1.06,0,0,1,1.15-1.13c2.42,0,4.84,0,7.26,0C273.21,69.53,273.51,69.68,273.42,70.24Z" transform="translate(-6 -40.14)"/><path class="cls-16" d="M215.8,70.24l-.31,0a.82.82,0,0,1,1-.66,44,44,0,0,0,5.5.17,2.45,2.45,0,0,1,.61,0,.94.94,0,0,1,.86,1,4.51,4.51,0,0,0,.1,1.71c.36.2.49-.4.83-.25,0,.52-.39.87-.62,1.29-.1.19-.35.19-.55.16s-.28-.26-.28-.46c0-.77,0-1.55,0-2.31,0-.53-.2-.72-.72-.71C220.1,70.22,218,70.23,215.8,70.24Z" transform="translate(-6 -40.14)"/><path class="cls-13" d="M122.35,81a2.86,2.86,0,0,1,1.73-2.19A12.63,12.63,0,0,1,122.35,81Z" transform="translate(-6 -40.14)"/><path class="cls-13" d="M121.39,83.49a3,3,0,0,1,1-2.47c0,.84-.65,1.5-.65,2.34C121.7,83.4,121.49,83.44,121.39,83.49Z" transform="translate(-6 -40.14)"/><path class="cls-14" d="M123.34,71.71c-.37.72-1.11,1-1.7,1.49C121.83,72.27,122.6,72,123.34,71.71Z" transform="translate(-6 -40.14)"/><path class="cls-6" d="M201.52,87.62a9.65,9.65,0,0,1-3.72,8.28,8.11,8.11,0,0,1-5,1.93,9.82,9.82,0,0,1-6.13-1.57,9.14,9.14,0,0,1-3-3.42,11.7,11.7,0,0,1-.56-9.27,9,9,0,0,1,6.06-5.83,9.89,9.89,0,0,1,3.35-.42,8.62,8.62,0,0,1,6.7,3.33A9.78,9.78,0,0,1,201.52,87.62Z" transform="translate(-6 -40.14)"/><path class="cls-17" d="M49.29,103.34a1.31,1.31,0,0,1-1.19-.45A36.1,36.1,0,0,0,42.74,99a37.19,37.19,0,0,0-4.34-2.14,35.06,35.06,0,0,0-3.68-1.44c-1.89-.59-3.81-1.08-5.72-1.62a2.23,2.23,0,0,1-.57-.18.63.63,0,0,1-.22-.66c0-.29.25-.39.52-.4a3.49,3.49,0,0,1,1.2.17c2.12.7,4.27,1.33,6.35,2.13a36.85,36.85,0,0,1,5.33,2.58c1.25.73,2.51,1.47,3.69,2.3a22.38,22.38,0,0,1,3.93,3.41c.05,0,0,.15,0,.23Z" transform="translate(-6 -40.14)"/><path class="cls-17" d="M49.27,103.35c.61.38,1.34.63,1.48,1.48v0c-.7-.28-1.42-.54-1.47-1.47Z" transform="translate(-6 -40.14)"/><path class="cls-17" d="M50.75,104.83c.57,0,.56.52.77.85a.85.85,0,0,1-.76-.87Z" transform="translate(-6 -40.14)"/><path class="cls-18" d="M50.75,73.67c0,.32.07.67-.21.92-1.82,1.6-3.35,3.5-5.31,5-1.26,1-2.55,1.89-3.86,2.75a30.41,30.41,0,0,1-4.87,2.62c-1.26.55-2.51,1.11-3.81,1.58-.71.25-1.38.66-2.11.91a2.14,2.14,0,0,1-.82.19.58.58,0,0,1-.59-.52.52.52,0,0,1,.37-.66c1.29-.48,2.54-1,3.85-1.45a37.36,37.36,0,0,0,6.33-2.74,43.44,43.44,0,0,0,7.15-5c.91-.74,1.66-1.67,2.52-2.47.43-.41.7-1,1.37-1.14Z" transform="translate(-6 -40.14)"/><path class="cls-18" d="M52,71.84c.18.06.2.21.18.37s0,.35-.25.25-.17-.24-.15-.4S51.88,71.84,52,71.84Z" transform="translate(-6 -40.14)"/><path class="cls-18" d="M50.76,73.68c0-.33.15-.51.49-.49v0c0,.34-.15.51-.49.5Z" transform="translate(-6 -40.14)"/><path class="cls-18" d="M51.25,73.19c0-.2,0-.42.29-.4,0,0,.08,0,.09.08,0,.3-.19.3-.39.3Z" transform="translate(-6 -40.14)"/><path class="cls-6" d="M264.92,87.29a10.32,10.32,0,0,1-2.13,7,8.83,8.83,0,0,1-7.55,3.52,8.63,8.63,0,0,1-7.13-3.69,10.78,10.78,0,0,1-1.8-9.41,9.75,9.75,0,0,1,3.63-5.68,8.75,8.75,0,0,1,4.67-1.76,9.31,9.31,0,0,1,9.8,6.51A12.6,12.6,0,0,1,264.92,87.29Z" transform="translate(-6 -40.14)"/><path class="cls-6" d="M315.34,83.89a18.75,18.75,0,0,1-2.47,8.72,3.9,3.9,0,0,1-1.17,1.22c-.66.43-1.19.21-1.55-.51a7,7,0,0,1-.35-4.08,11.42,11.42,0,0,1,3.07-6.58,6.1,6.1,0,0,1,1.24-1c.73-.44,1.16-.21,1.22.62C315.37,82.83,315.34,83.36,315.34,83.89Z" transform="translate(-6 -40.14)"/><path class="cls-6" d="M349.2,88.82a8.28,8.28,0,0,1,.82-4.06c.64-1.27,1.4-1.39,2.78-.94A3.6,3.6,0,0,1,355.06,86a4.37,4.37,0,0,1,.11,2.65c-.27,1.43-.65,2.85-1,4.26a4.7,4.7,0,0,1-1.34,2,1.49,1.49,0,0,1-2.55-.57A16,16,0,0,1,349.2,88.82Z" transform="translate(-6 -40.14)"/><path class="cls-6" d="M370,70.76a5.83,5.83,0,0,1-5.85,5.89,5.94,5.94,0,0,1-6-6.05,6.06,6.06,0,0,1,6-5.89A6,6,0,0,1,370,70.76Z" transform="translate(-6 -40.14)"/><path class="cls-19" d="M362.18,70.68c0-.66,0-1.31,0-2,0-1.1.11-1.18,1.19-1.19a3.59,3.59,0,0,1,1.81.17,1.74,1.74,0,0,1,.48,2.78.94.94,0,0,0-.08,1.47c.28.35.52.73.76,1.1.14.21.25.45,0,.66s-.53.14-.79,0-.27-.4-.41-.6a7.81,7.81,0,0,0-1.12-1.56c-.14-.13-.22-.37-.48-.26s-.21.34-.22.53a9.92,9.92,0,0,0,0,1.22.62.62,0,0,1-.61.75c-.43,0-.53-.33-.53-.67,0-.82,0-1.64,0-2.45Z" transform="translate(-6 -40.14)"/><path class="cls-6" d="M364,70.3a1,1,0,0,1-.94-1.16,1,1,0,0,1,.9-.81A1.07,1.07,0,0,1,365,69.4.87.87,0,0,1,364,70.3Z" transform="translate(-6 -40.14)"/></svg>